<?xml version="1.0" encoding="utf-8"?>
<!-- Generator: Adobe Illustrator 24.3.0, SVG Export Plug-In . SVG Version: 6.00 Build 0)  -->
<svg version="1.1" id="Camada_1" xmlns="http://www.w3.org/2000/svg" xmlns:xlink="http://www.w3.org/1999/xlink" x="0px" y="0px"
	 viewBox="0 0 55 65" style="enable-background:new 0 0 55 65;" xml:space="preserve">
<style type="text/css">
	.st0{fill-rule:evenodd;clip-rule:evenodd;fill:#CCCCCC;}
	.st1{fill:#CCCCCC;}
</style>
<g>
	<g>
		<path class="st0" d="M27.5,0l13.8,8.2L55,16.3v16.3v16.1l-13.8,8.2L27.5,65l-13.8-8.2L0,48.7V32.6V16.3l13.8-8.2L27.5,0z
			 M27.5,9.3l9.9,5.7l9.9,5.9v11.7v11.7L37.4,50L27.5,56L17.6,50l-9.9-5.7V32.6V20.9l9.9-5.9L27.5,9.3z"/>
		<path class="st1" d="M27.7,11.7l8.6,5.1l0,0l8.4,5.1l0.4,0.2v0.4v10.1v9.9V43l-0.4,0.2l-8.4,5.1l0,0l-8.6,5.1l-0.2,0.2l-0.4-0.2
			l-8.6-5.1l0,0l-8.4-5.1L9.7,43v-0.4v-9.9V22.5V22l0.4-0.2l8.4-5.1l0,0l8.6-5.1l0.4-0.2L27.7,11.7z M35.4,18.1l-7.9-4.8l-8.2,4.8
			l0,0l-8.2,4.8v9.7v9.5l8.2,4.8l0,0l8.2,4.8l7.9-4.8l0,0l8.2-4.8v-9.5v-9.7L35.4,18.1L35.4,18.1z"/>
	</g>
</g>
</svg>
