<?xml version="1.0" encoding="utf-8"?>
<!-- Generator: Adobe Illustrator 24.3.0, SVG Export Plug-In . SVG Version: 6.00 Build 0)  -->
<svg version="1.1" id="Camada_1" xmlns="http://www.w3.org/2000/svg" xmlns:xlink="http://www.w3.org/1999/xlink" x="0px" y="0px"
	 viewBox="0 0 150 61.4" style="enable-background:new 0 0 150 61.4;" xml:space="preserve">
<style type="text/css">
	.st0{fill:none;stroke:#BFBFBF;stroke-width:2;stroke-miterlimit:10;}
	.st1{fill:#FCFCFC;stroke:#FCFCFC;stroke-width:2;stroke-miterlimit:10;}
</style>
<g>
	<g>
		<g>
			<path class="st0" d="M22.8,22.1c0,1.5-0.3,2.5-0.9,3.1s-1.3,0.9-2.5,0.9h-4.5c-1.2,7.7-1.8,15-1.8,22c0,2.1,0,3.6,0.1,4.6
				c0.1,0.9,0.3,2.5,0.7,4.9c-4-1.6-6.1-5.4-6.1-11c0-6.4,0.6-13.1,1.9-20.1c-1.8,0.3-3.6,0.9-5.5,1.6c0-0.6-0.1-1-0.1-1.5
				c0-1.8,0.6-2.8,1.6-3.4c1.2-0.6,2.7-0.9,4.9-0.9C13.8,9.9,18.5,3.5,24.9,3.5c2.1,0,3.9,0.6,5.2,1.8c1.5,0.9,2.1,2.4,2.1,4
				s-0.4,3-1.5,4.2c-0.9,1.2-2.2,1.6-3.9,1.6c-0.6,0-1.2-0.1-1.8-0.4c0.4-0.4,0.9-1,1.3-1.9S27,11,27,10s-0.3-1.8-0.7-2.5
				c-0.4-0.7-1.2-1-2.1-1c-3.7,0-6.7,5.4-8.8,15.9c3.4,0,5.8-0.4,7.1-1.5C22.8,21.2,22.8,21.7,22.8,22.1z"/>
		</g>
		<g>
			<path class="st0" d="M38.9,50.7c-1.9,1-4.3,1.6-6.8,1.6s-4.9-1.2-6.8-3.4s-2.8-5.5-2.8-9.7c0-4.8,1.3-8.9,3.9-12.7
				c1.2-1.8,2.8-3.3,4.9-4.3s4.2-1.6,6.7-1.6c5.4,0,8,2.5,8,7.7c0,3.1-1.2,5.5-3.6,7.3c-2.4,1.8-5.2,2.7-8.3,2.7
				c-2.1,0-4-0.1-5.7-0.6c0,0.3,0,0.9,0,1.6c0,6.3,1.9,9.5,5.7,9.5c3.6,0,6.4-1.8,8.6-5.2c1.3,0.1,1.9,0.6,1.9,1.5
				C42.6,47.9,40.8,49.7,38.9,50.7z M36.6,23.5c-2.1,0-4,1.2-5.5,3.7s-2.5,5.4-3,8.6h1.5c1.9,0,3.6-0.3,4.9-0.7
				c1.3-0.6,2.5-1.2,3.3-2.1c1.5-1.6,2.1-3.6,2.1-5.5c0-1.2-0.3-2.1-0.9-2.8C38.7,23.8,37.8,23.5,36.6,23.5z"/>
		</g>
		<g>
			<path class="st0" d="M60.1,23.3c-1.2,0-2.2,0.4-3.3,1.2c-0.9,0.7-1.5,1.8-1.5,3.1s0.4,2.5,1.3,3.7c0.9,1.2,1.9,2.2,3.1,3.1
				c1.2,0.9,2.5,1.8,3.9,2.7c3,2.2,4.5,4.6,4.5,7.1s-1,4.6-3.1,6.3c-2,1.7-4.6,2.5-7.7,2.5s-5.6-0.6-7.3-2c-1.8-1.2-2.5-2.7-2.5-4.5
				c0-1.6,0.4-3,1.3-4c0.9-0.9,1.9-1.5,3.1-1.5c0.6,0,1.2,0.1,1.8,0.4c-0.7,1-1.2,2.2-1.2,3.6c0,1.3,0.4,2.5,1.2,3.4
				c0.9,0.9,1.9,1.3,3.4,1.3s2.7-0.4,3.7-1.2s1.5-1.8,1.5-3s-0.3-2.2-0.9-3.1c-0.6-0.9-1.3-1.6-2.2-2.2c-0.9-0.6-1.9-1.3-3-2.1
				c-1-0.7-2.1-1.5-3-2.4c-0.9-0.7-1.6-1.8-2.2-2.8c-0.6-1.2-0.9-2.4-0.9-3.9c0-2.5,0.9-4.6,2.8-6.3c1.9-1.6,4.3-2.4,7.3-2.4
				s5.1,0.6,6.4,1.8c1.3,1.2,2.1,2.5,2.1,4.2c0,1.5-0.4,2.8-1.2,3.7c-0.7,1-1.8,1.5-2.8,1.5c-0.6,0-1.2-0.1-1.9-0.4
				c0.9-1.2,1.3-2.4,1.3-3.7s-0.4-2.4-1.2-3C62.2,23.6,61.3,23.3,60.1,23.3z"/>
		</g>
		<g>
			<path class="st0" d="M90.8,22.6c0,1.5-0.3,2.5-0.9,3.1s-1.3,0.9-2.5,0.9h-3.9c-0.1,0.9-0.4,3.1-1.2,6.7c-1.2,6.7-1.8,11.6-1.8,15
				c0,3.4,0.3,5.7,0.7,6.7c-2.1-0.7-3.4-1.9-4.3-3.4s-1.3-3.4-1.3-5.5c0-2.2,0.1-4.2,0.4-6.3c0.3-1.9,0.6-4.2,1.2-6.8
				c0.4-2.7,0.9-4.8,1-6.3c-2.1,0.3-4,0.9-6,1.8c0-0.6-0.1-1-0.1-1.5c0-1.8,0.6-2.8,1.8-3.4c1.2-0.6,2.8-0.9,4.9-0.9
				c0.3-2.7,0.4-4.6,0.4-6s0-2.4,0-3.1c0-0.7,0-1.3,0-1.8c1.6,0.3,3,1,3.9,2.2s1.3,2.8,1.3,4.9c0,1-0.1,2.4-0.3,3.9
				c3.1,0,5.4-0.4,6.6-1.5C90.8,21.7,90.8,22.1,90.8,22.6z"/>
		</g>
		<g>
			<path class="st0" d="M101.5,23.8c2.2-1.8,4.6-2.7,7-2.7s4.3,1,6,3.1c1.6,2.1,2.4,4.9,2.4,8.5c0,3.9-0.7,7.6-2.2,10.9
				c-1.6,3.7-4.2,6.3-7.3,7.7c-1.8,0.9-3.6,1.2-5.7,1.2c-2.8,0-5.4-1.2-7.6-3.6c-2.2-2.4-3.3-5.8-3.3-10.3s0.9-8.3,2.8-11.6
				s4.6-5.5,7.9-6.8c0.7,0,1,0.3,1,1c-3.6,2.4-5.7,6-6.6,10.9C97.4,28.4,99.1,25.6,101.5,23.8z M111.5,34.3c0-3.4-0.4-6-1.3-7.4
				c-0.9-1.5-2.1-2.2-3.7-2.2s-3.3,0.7-4.9,2.4c-1.6,1.6-3,3.6-3.9,6s-1.5,4.8-1.5,7.3s0.4,4.8,1.5,6.6c0.9,1.8,2.4,2.8,4.5,2.8
				c2.8,0,5.1-1.6,6.8-4.9C110.6,41.2,111.5,37.8,111.5,34.3z"/>
		</g>
		<g>
			<path class="st0" d="M139.2,21c3.1,0,4.6,1.6,4.6,4.8c0,0.6-0.3,3.1-1,7.6s-1,8.3-1,11.5c0,3.1,0.3,6,1,8.5
				c-2.2-0.9-3.7-2.1-4.5-3.6c-0.9-1.6-1.2-3.6-1.2-5.8c0-0.9,0.1-3,0.6-6.1c-1,4-2.7,7.4-4.9,10.3c-2.2,2.8-4.3,4.2-6.3,4.2
				c-4,0-6.1-3-6.1-8.9c0-1.9,0.3-4.8,0.9-8.2c0.6-3.6,0.9-6.3,0.9-8c0-1.8-0.3-3.7-0.7-5.5c2.2,0,4,0.4,5.2,1.2
				c1.2,0.7,1.8,2.2,1.8,4.6c0,1.2-0.4,3.7-1.2,7.4s-1.2,6.6-1.2,8.5c0,2.7,0.9,4,2.5,4c1.3,0,2.8-1,4.3-3.1s2.7-4.9,3.7-8.3
				s1.5-6.7,1.5-10.1c0-1.5-0.1-3-0.3-4.3C138.3,21,138.9,21,139.2,21z"/>
		</g>
	</g>
	<g>
		<g>
			<path class="st1" d="M24.4,21.5c0,1.5-0.3,2.5-0.9,3.1s-1.3,0.9-2.5,0.9h-4.5c-1.2,7.7-1.8,15-1.8,22c0,2.1,0,3.6,0.1,4.6
				c0.1,0.9,0.3,2.5,0.7,4.9c-4-1.6-6.1-5.4-6.1-11c0-6.4,0.6-13.1,1.9-20.1c-1.8,0.3-3.6,0.9-5.5,1.6c0-0.6-0.1-1-0.1-1.5
				c0-1.8,0.6-2.8,1.6-3.4c1.2-0.9,2.8-1.2,4.9-1.2C15.5,9,20.1,2.6,26.5,2.6c2.1,0,3.9,0.6,5.2,1.8c1.3,1.2,2.1,2.5,2.1,4.2
				s-0.4,3-1.5,4.2c-0.9,1.2-2.2,1.6-3.9,1.6c-0.6,0-1.2-0.1-1.8-0.4c0.4-0.4,0.9-1,1.3-1.9s0.7-1.8,0.7-2.8s-0.2-2-0.6-2.7
				s-1.2-1-2.1-1c-3.7,0-6.7,5.4-8.8,15.9c3.4,0,5.8-0.4,7.1-1.5C24.4,20.6,24.4,21,24.4,21.5z"/>
		</g>
		<g>
			<path class="st1" d="M40.5,50.1c-1.9,1-4.3,1.6-6.8,1.6s-4.9-1.2-6.8-3.4s-2.8-5.5-2.8-9.7c0-4.8,1.3-8.9,3.9-12.7
				c1.2-1.8,2.8-3.3,4.9-4.3s4.2-1.6,6.7-1.6c5.4,0,8,2.5,8,7.7c0,3.1-1.2,5.5-3.6,7.3c-2.4,1.8-5.2,2.7-8.3,2.7
				c-2.1,0-4-0.1-5.7-0.6c0,0.3,0,0.9,0,1.6c0,6.3,1.9,9.5,5.7,9.5c3.6,0,6.4-1.8,8.6-5.2c1.3,0.1,1.9,0.6,1.9,1.5
				C44.2,47.1,42.4,49,40.5,50.1z M38.2,22.7c-2.1,0-4,1.2-5.5,3.7s-2.5,5.4-3,8.6h1.5c1.9,0,3.6-0.3,4.9-0.7
				c1.3-0.4,2.5-1.2,3.3-2.1c1.5-1.6,2.1-3.6,2.1-5.5c0-1.2-0.3-2.1-0.9-2.8C40.3,23.1,39.4,22.7,38.2,22.7z"/>
		</g>
		<g>
			<path class="st1" d="M61.8,22.5c-1.2,0-2.2,0.4-3.3,1.2c-0.9,0.7-1.5,1.8-1.5,3.1s0.4,2.5,1.3,3.7c0.9,1.2,1.9,2.2,3.1,3.1
				s2.5,1.8,3.9,2.7c3,2.2,4.5,4.6,4.5,7.1s-1,4.6-3.1,6.3c-2.1,1.6-4.6,2.4-7.7,2.4s-5.7-0.6-7.3-1.9c-1.8-1.2-2.5-2.7-2.5-4.5
				c0-1.6,0.4-3,1.3-4c0.9-0.9,1.9-1.5,3.1-1.5c0.6,0,1.2,0.1,1.8,0.4c-0.7,1-1.2,2.2-1.2,3.6c0,1.3,0.4,2.5,1.2,3.4
				c0.9,0.9,1.9,1.3,3.4,1.3s2.7-0.4,3.7-1.2c1-0.7,1.5-1.8,1.5-3s-0.3-2.2-0.9-3.1c-0.6-0.9-1.3-1.6-2.2-2.2
				c-0.9-0.6-1.9-1.3-3-2.1c-1-0.7-2.1-1.5-3-2.4c-0.9-0.7-1.6-1.8-2.2-2.8c-0.6-1.2-0.9-2.4-0.9-3.9c0-2.5,0.9-4.6,2.8-6.3
				c1.9-1.6,4.3-2.4,7.3-2.4c3,0,5.1,0.6,6.4,1.8c1.3,1.2,2.1,2.5,2.1,4.2c0,1.5-0.4,2.8-1.2,3.7c-0.7,1-1.8,1.5-2.8,1.5
				c-0.6,0-1.2-0.1-1.9-0.4c0.9-1.2,1.3-2.4,1.3-3.7c0-1.3-0.4-2.4-1.2-3C63.8,23,62.9,22.5,61.8,22.5z"/>
		</g>
		<g>
			<path class="st1" d="M92.4,21.8c0,1.5-0.3,2.5-0.9,3.1s-1.3,0.9-2.5,0.9h-3.9c-0.1,0.9-0.4,3.1-1.2,6.7c-1.2,6.7-1.8,11.6-1.8,15
				s0.3,5.7,0.7,6.7c-2.1-0.7-3.4-1.9-4.3-3.4s-1.3-3.4-1.3-5.5c0-2.2,0.1-4.2,0.4-6.3c0.3-1.9,0.6-4.2,1.2-6.8
				c0.4-2.7,0.9-4.8,1-6.3c-2.1,0.3-4,0.9-6,1.8c0-0.6-0.1-1-0.1-1.5c0-1.8,0.6-2.8,1.8-3.4c1.2-0.6,2.8-0.9,4.9-0.9
				c0.3-2.7,0.4-4.6,0.4-6c0-1.3,0-2.4,0-3.1c0-0.7,0-1.3,0-1.8c1.6,0.3,3,1,3.9,2.2S86,16,86,18.1c0,1-0.1,2.4-0.3,3.9
				c3.1,0,5.4-0.4,6.6-1.5C92.4,20.9,92.4,21.5,92.4,21.8z"/>
		</g>
		<g>
			<path class="st1" d="M103.1,23.1c2.2-1.8,4.6-2.7,7-2.7s4.3,1,6,3.1c1.6,2.1,2.4,4.9,2.4,8.5c0,3.9-0.7,7.6-2.2,10.9
				c-1.6,3.7-4.2,6.3-7.3,7.7c-1.8,0.9-3.6,1.2-5.7,1.2c-2.8,0-5.4-1.2-7.6-3.6c-2.2-2.4-3.3-5.8-3.3-10.3s0.9-8.3,2.8-11.6
				s4.6-5.5,7.9-6.8c0.7,0,1,0.3,1,1c-3.6,2.4-5.7,6-6.6,10.9C99,27.7,100.8,24.9,103.1,23.1z M113.1,33.7c0-3.4-0.4-6-1.3-7.4
				c-0.9-1.5-2.1-2.2-3.7-2.2s-3.3,0.7-4.9,2.4c-1.6,1.6-3,3.6-3.9,6s-1.5,4.8-1.5,7.3s0.4,4.8,1.5,6.6c0.9,1.8,2.4,2.8,4.5,2.8
				c2.8,0,5.1-1.6,6.8-4.9C112.2,40.5,113.1,37.1,113.1,33.7z"/>
		</g>
		<g>
			<path class="st1" d="M140.8,20.1c3.1,0,4.6,1.6,4.6,4.8c0,0.6-0.3,3.1-1,7.6s-1,8.3-1,11.5c0,3.1,0.3,6,1,8.5
				c-2.2-0.9-3.7-2.1-4.5-3.6c-0.9-1.6-1.2-3.6-1.2-5.8c0-0.9,0.1-3,0.6-6.1c-1,4-2.7,7.4-4.9,10.3c-2.4,2.5-4.5,4-6.4,4
				c-4,0-6.1-3-6.1-8.9c0-1.9,0.3-4.8,0.9-8.2c0.6-3.6,0.9-6.3,0.9-8c0-1.8-0.3-3.7-0.7-5.5c2.2,0,4,0.4,5.2,1.2
				c1.2,0.7,1.8,2.2,1.8,4.6c0,1.2-0.4,3.7-1.2,7.4s-1.2,6.6-1.2,8.5c0,2.7,0.9,4,2.5,4c1.3,0,2.8-1,4.3-3.1s2.7-4.9,3.7-8.3
				s1.5-6.7,1.5-10.1c0-1.5-0.1-3-0.3-4.3C139.9,20.3,140.5,20.1,140.8,20.1z"/>
		</g>
	</g>
</g>
</svg>
