<?xml version="1.0" encoding="utf-8"?>
<!-- Generator: Adobe Illustrator 24.3.0, SVG Export Plug-In . SVG Version: 6.00 Build 0)  -->
<svg version="1.1" id="Camada_1" xmlns="http://www.w3.org/2000/svg" xmlns:xlink="http://www.w3.org/1999/xlink" x="0px" y="0px"
	 viewBox="0 0 150 61.4" style="enable-background:new 0 0 150 61.4;" xml:space="preserve">
<style type="text/css">
	.st0{opacity:0.85;}
	.st1{fill:#AD5DDB;stroke:#AD5DDB;stroke-width:2;stroke-miterlimit:10;}
	.st2{fill:#F90B7D;stroke:#F90B7D;stroke-width:2;stroke-miterlimit:10;}
	.st3{fill:#00DBFF;stroke:#00DBFF;stroke-width:2;stroke-miterlimit:10;}
	.st4{fill:none;stroke:#353535;stroke-width:2;stroke-miterlimit:10;}
</style>
<g>
	<g class="st0">
		<g>
			<path class="st1" d="M22.4,22.5c0,1.5-0.3,2.5-0.9,3.1c-0.6,0.6-1.3,0.9-2.5,0.9h-4.5c-1.2,7.7-1.8,15-1.8,22
				c0,2.1,0,3.6,0.1,4.6c0.1,0.9,0.3,2.5,0.7,4.9c-4-1.6-6.1-5.4-6.1-11c0-6.4,0.6-13.1,1.9-20.1c-1.8,0.3-3.6,0.9-5.5,1.6
				c0-0.6-0.1-1-0.1-1.5c0-1.8,0.6-2.8,1.6-3.4c1.2-0.9,2.8-1.2,4.9-1.2C13.5,10,18.1,3.6,24.5,3.6c2.1,0,3.9,0.6,5.2,1.8
				c1.3,1.2,2.1,2.5,2.1,4.2s-0.4,3-1.5,4.2c-0.9,1.2-2.2,1.6-3.9,1.6c-0.6,0-1.2-0.1-1.8-0.4c0.4-0.4,0.9-1,1.3-1.9
				c0.4-0.9,0.7-1.8,0.7-2.8S26.4,8.3,26,7.6c-0.4-0.7-1.2-1-2.1-1c-3.7,0-6.7,5.4-8.8,15.9c3.4,0,5.8-0.4,7.1-1.5
				C22.4,21.6,22.4,22,22.4,22.5z"/>
		</g>
		<g>
			<path class="st2" d="M38.5,51.1c-1.9,1-4.3,1.6-6.8,1.6c-2.5,0-4.9-1.2-6.8-3.4c-1.9-2.2-2.8-5.5-2.8-9.7c0-4.8,1.3-8.9,3.9-12.7
				c1.2-1.8,2.8-3.3,4.9-4.3c2.1-1,4.2-1.6,6.7-1.6c5.4,0,8,2.5,8,7.7c0,3.1-1.2,5.5-3.6,7.3c-2.4,1.8-5.2,2.7-8.3,2.7
				c-2.1,0-4-0.1-5.7-0.6c0,0.3,0,0.9,0,1.6c0,6.3,1.9,9.5,5.7,9.5c3.6,0,6.4-1.8,8.6-5.2c1.3,0.1,1.9,0.6,1.9,1.5
				C42.2,48.1,40.4,50,38.5,51.1z M36.2,23.7c-2.1,0-4,1.2-5.5,3.7c-1.5,2.5-2.5,5.4-3,8.6h1.5c1.9,0,3.6-0.3,4.9-0.7
				c1.3-0.4,2.5-1.2,3.3-2.1c1.5-1.6,2.1-3.6,2.1-5.5c0-1.2-0.3-2.1-0.9-2.8C38.3,24.1,37.4,23.7,36.2,23.7z"/>
		</g>
		<g>
			<path class="st1" d="M59.8,23.5c-1.2,0-2.2,0.4-3.3,1.2c-0.9,0.7-1.5,1.8-1.5,3.1s0.4,2.5,1.3,3.7c0.9,1.2,1.9,2.2,3.1,3.1
				s2.5,1.8,3.9,2.7c3,2.2,4.5,4.6,4.5,7.1s-1,4.6-3.1,6.3c-2.1,1.6-4.6,2.4-7.7,2.4s-5.7-0.6-7.3-1.9c-1.8-1.2-2.5-2.7-2.5-4.5
				c0-1.6,0.4-3,1.3-4c0.9-0.9,1.9-1.5,3.1-1.5c0.6,0,1.2,0.1,1.8,0.4c-0.7,1-1.2,2.2-1.2,3.6c0,1.3,0.4,2.5,1.2,3.4
				c0.9,0.9,1.9,1.3,3.4,1.3c1.5,0,2.7-0.4,3.7-1.2c1-0.7,1.5-1.8,1.5-3s-0.3-2.2-0.9-3.1c-0.6-0.9-1.3-1.6-2.2-2.2
				c-0.9-0.6-1.9-1.3-3-2.1c-1-0.7-2.1-1.5-3-2.4c-0.9-0.7-1.6-1.8-2.2-2.8c-0.6-1.2-0.9-2.4-0.9-3.9c0-2.5,0.9-4.6,2.8-6.3
				c1.9-1.6,4.3-2.4,7.3-2.4s5.1,0.6,6.4,1.8c1.3,1.2,2.1,2.5,2.1,4.2c0,1.5-0.4,2.8-1.2,3.7c-0.7,1-1.8,1.5-2.8,1.5
				c-0.6,0-1.2-0.1-1.9-0.4c0.9-1.2,1.3-2.4,1.3-3.7c0-1.3-0.4-2.4-1.2-3C61.8,24,60.9,23.5,59.8,23.5z"/>
		</g>
		<g>
			<path class="st3" d="M90.4,22.8c0,1.5-0.3,2.5-0.9,3.1c-0.6,0.6-1.3,0.9-2.5,0.9h-3.9c-0.1,0.9-0.4,3.1-1.2,6.7
				c-1.2,6.7-1.8,11.6-1.8,15c0,3.4,0.3,5.7,0.7,6.7c-2.1-0.7-3.4-1.9-4.3-3.4c-0.9-1.5-1.3-3.4-1.3-5.5c0-2.2,0.1-4.2,0.4-6.3
				c0.3-1.9,0.6-4.2,1.2-6.8c0.4-2.7,0.9-4.8,1-6.3c-2.1,0.3-4,0.9-6,1.8c0-0.6-0.1-1-0.1-1.5c0-1.8,0.6-2.8,1.8-3.4
				c1.2-0.6,2.8-0.9,4.9-0.9c0.3-2.7,0.4-4.6,0.4-6c0-1.3,0-2.4,0-3.1c0-0.7,0-1.3,0-1.8c1.6,0.3,3,1,3.9,2.2
				c0.9,1.2,1.3,2.8,1.3,4.9c0,1-0.1,2.4-0.3,3.9c3.1,0,5.4-0.4,6.6-1.5C90.4,21.9,90.4,22.5,90.4,22.8z"/>
		</g>
		<g>
			<path class="st2" d="M101.1,24.1c2.2-1.8,4.6-2.7,7-2.7c2.4,0,4.3,1,6,3.1c1.6,2.1,2.4,4.9,2.4,8.5c0,3.9-0.7,7.6-2.2,10.9
				c-1.6,3.7-4.2,6.3-7.3,7.7c-1.8,0.9-3.6,1.2-5.7,1.2c-2.8,0-5.4-1.2-7.6-3.6c-2.2-2.4-3.3-5.8-3.3-10.3s0.9-8.3,2.8-11.6
				s4.6-5.5,7.9-6.8c0.7,0,1,0.3,1,1c-3.6,2.4-5.7,6-6.6,10.9C97,28.7,98.8,25.9,101.1,24.1z M111.1,34.7c0-3.4-0.4-6-1.3-7.4
				c-0.9-1.5-2.1-2.2-3.7-2.2c-1.6,0-3.3,0.7-4.9,2.4c-1.6,1.6-3,3.6-3.9,6c-0.9,2.4-1.5,4.8-1.5,7.3s0.4,4.8,1.5,6.6
				c0.9,1.8,2.4,2.8,4.5,2.8c2.8,0,5.1-1.6,6.8-4.9C110.2,41.5,111.1,38.1,111.1,34.7z"/>
		</g>
		<g>
			<path class="st3" d="M138.8,21.1c3.1,0,4.6,1.6,4.6,4.8c0,0.6-0.3,3.1-1,7.6s-1,8.3-1,11.5c0,3.1,0.3,6,1,8.5
				c-2.2-0.9-3.7-2.1-4.5-3.6c-0.9-1.6-1.2-3.6-1.2-5.8c0-0.9,0.1-3,0.6-6.1c-1,4-2.7,7.4-4.9,10.3c-2.4,2.5-4.5,4-6.4,4
				c-4,0-6.1-3-6.1-8.9c0-1.9,0.3-4.8,0.9-8.2c0.6-3.6,0.9-6.3,0.9-8c0-1.8-0.3-3.7-0.7-5.5c2.2,0,4,0.4,5.2,1.2
				c1.2,0.7,1.8,2.2,1.8,4.6c0,1.2-0.4,3.7-1.2,7.4s-1.2,6.6-1.2,8.5c0,2.7,0.9,4,2.5,4c1.3,0,2.8-1,4.3-3.1s2.7-4.9,3.7-8.3
				s1.5-6.7,1.5-10.1c0-1.5-0.1-3-0.3-4.3C137.9,21.3,138.5,21.1,138.8,21.1z"/>
		</g>
	</g>
	<g>
		<g>
			<path class="st4" d="M24.8,21.1c0,1.5-0.3,2.5-0.9,3.1c-0.6,0.6-1.3,0.9-2.5,0.9h-4.5c-1.2,7.7-1.8,15-1.8,22
				c0,2.1,0,3.6,0.1,4.6c0.1,0.9,0.3,2.5,0.7,4.9c-4-1.6-6.1-5.4-6.1-11c0-6.4,0.6-13.1,1.9-20.1c-1.8,0.3-3.6,0.9-5.5,1.6
				c0-0.6-0.1-1-0.1-1.5c0-1.8,0.6-2.8,1.6-3.4c1.2-0.6,2.7-0.9,4.9-0.9C15.8,8.9,20.5,2.5,26.9,2.5c2.1,0,3.9,0.6,5.2,1.8
				c1.5,0.9,2.1,2.4,2.1,4s-0.4,3-1.5,4.2c-0.9,1.2-2.2,1.6-3.9,1.6c-0.6,0-1.2-0.1-1.8-0.4c0.4-0.4,0.9-1,1.3-1.9
				c0.4-0.9,0.7-1.8,0.7-2.8s-0.3-1.8-0.7-2.5c-0.4-0.7-1.2-1-2.1-1c-3.7,0-6.7,5.4-8.8,15.9c3.4,0,5.8-0.4,7.1-1.5
				C24.8,20.2,24.8,20.7,24.8,21.1z"/>
		</g>
		<g>
			<path class="st4" d="M40.9,49.7c-1.9,1-4.3,1.6-6.8,1.6s-4.9-1.2-6.8-3.4c-1.9-2.2-2.8-5.5-2.8-9.7c0-4.8,1.3-8.9,3.9-12.7
				c1.2-1.8,2.8-3.3,4.9-4.3s4.2-1.6,6.7-1.6c5.4,0,8,2.5,8,7.7c0,3.1-1.2,5.5-3.6,7.3c-2.4,1.8-5.2,2.7-8.3,2.7
				c-2.1,0-4-0.1-5.7-0.6c0,0.3,0,0.9,0,1.6c0,6.3,1.9,9.5,5.7,9.5c3.6,0,6.4-1.8,8.6-5.2c1.3,0.1,1.9,0.6,1.9,1.5
				C44.6,46.9,42.8,48.7,40.9,49.7z M38.6,22.5c-2.1,0-4,1.2-5.5,3.7c-1.5,2.5-2.5,5.4-3,8.6h1.5c1.9,0,3.6-0.3,4.9-0.7
				c1.3-0.6,2.5-1.2,3.3-2.1c1.5-1.6,2.1-3.6,2.1-5.5c0-1.2-0.3-2.1-0.9-2.8C40.7,22.8,39.8,22.5,38.6,22.5z"/>
		</g>
		<g>
			<path class="st4" d="M62.1,22.3c-1.2,0-2.2,0.4-3.3,1.2c-0.9,0.7-1.5,1.8-1.5,3.1s0.4,2.5,1.3,3.7c0.9,1.2,1.9,2.2,3.1,3.1
				c1.2,0.9,2.5,1.8,3.9,2.7c3,2.2,4.5,4.6,4.5,7.1c0,2.5-1,4.6-3.1,6.3C65,51.2,62.4,52,59.3,52S53.7,51.4,52,50
				c-1.8-1.2-2.5-2.7-2.5-4.5c0-1.6,0.4-3,1.3-4c0.9-0.9,1.9-1.5,3.1-1.5c0.6,0,1.2,0.1,1.8,0.4c-0.7,1-1.2,2.2-1.2,3.6
				c0,1.3,0.4,2.5,1.2,3.4c0.9,0.9,1.9,1.3,3.4,1.3c1.5,0,2.7-0.4,3.7-1.2s1.5-1.8,1.5-3s-0.3-2.2-0.9-3.1c-0.6-0.9-1.3-1.6-2.2-2.2
				c-0.9-0.6-1.9-1.3-3-2.1c-1-0.7-2.1-1.5-3-2.4c-0.9-0.7-1.6-1.8-2.2-2.8c-0.6-1.2-0.9-2.4-0.9-3.9c0-2.5,0.9-4.6,2.8-6.3
				c1.9-1.6,4.3-2.4,7.3-2.4c3,0,5.1,0.6,6.4,1.8c1.3,1.2,2.1,2.5,2.1,4.2c0,1.5-0.4,2.8-1.2,3.7c-0.7,1-1.8,1.5-2.8,1.5
				c-0.6,0-1.2-0.1-1.9-0.4c0.9-1.2,1.3-2.4,1.3-3.7s-0.4-2.4-1.2-3C64.2,22.6,63.3,22.3,62.1,22.3z"/>
		</g>
		<g>
			<path class="st4" d="M92.8,21.6c0,1.5-0.3,2.5-0.9,3.1c-0.6,0.6-1.3,0.9-2.5,0.9h-3.9c-0.1,0.9-0.4,3.1-1.2,6.7
				c-1.2,6.7-1.8,11.6-1.8,15c0,3.4,0.3,5.7,0.7,6.7c-2.1-0.7-3.4-1.9-4.3-3.4c-0.9-1.5-1.3-3.4-1.3-5.5c0-2.2,0.1-4.2,0.4-6.3
				c0.3-1.9,0.6-4.2,1.2-6.8c0.4-2.7,0.9-4.8,1-6.3c-2.1,0.3-4,0.9-6,1.8c0-0.6-0.1-1-0.1-1.5c0-1.8,0.6-2.8,1.8-3.4
				c1.2-0.6,2.8-0.9,4.9-0.9c0.3-2.7,0.4-4.6,0.4-6s0-2.4,0-3.1c0-0.7,0-1.3,0-1.8c1.6,0.3,3,1,3.9,2.2c0.9,1.2,1.3,2.8,1.3,4.9
				c0,1-0.1,2.4-0.3,3.9c3.1,0,5.4-0.4,6.6-1.5C92.8,20.7,92.8,21.1,92.8,21.6z"/>
		</g>
		<g>
			<path class="st4" d="M103.5,22.8c2.2-1.8,4.6-2.7,7-2.7c2.4,0,4.3,1,6,3.1c1.6,2.1,2.4,4.9,2.4,8.5c0,3.9-0.7,7.6-2.2,10.9
				c-1.6,3.7-4.2,6.3-7.3,7.7c-1.8,0.9-3.6,1.2-5.7,1.2c-2.8,0-5.4-1.2-7.6-3.6c-2.2-2.4-3.3-5.8-3.3-10.3s0.9-8.3,2.8-11.6
				s4.6-5.5,7.9-6.8c0.7,0,1,0.3,1,1c-3.6,2.4-5.7,6-6.6,10.9C99.4,27.4,101.1,24.6,103.5,22.8z M113.5,33.3c0-3.4-0.4-6-1.3-7.4
				c-0.9-1.5-2.1-2.2-3.7-2.2s-3.3,0.7-4.9,2.4c-1.6,1.6-3,3.6-3.9,6c-0.9,2.4-1.5,4.8-1.5,7.3s0.4,4.8,1.5,6.6
				c0.9,1.8,2.4,2.8,4.5,2.8c2.8,0,5.1-1.6,6.8-4.9C112.6,40.2,113.5,36.8,113.5,33.3z"/>
		</g>
		<g>
			<path class="st4" d="M141.2,20c3.1,0,4.6,1.6,4.6,4.8c0,0.6-0.3,3.1-1,7.6c-0.7,4.5-1,8.3-1,11.5c0,3.1,0.3,6,1,8.5
				c-2.2-0.9-3.7-2.1-4.5-3.6c-0.9-1.6-1.2-3.6-1.2-5.8c0-0.9,0.1-3,0.6-6.1c-1,4-2.7,7.4-4.9,10.3c-2.2,2.8-4.3,4.2-6.3,4.2
				c-4,0-6.1-3-6.1-8.9c0-1.9,0.3-4.8,0.9-8.2c0.6-3.6,0.9-6.3,0.9-8c0-1.8-0.3-3.7-0.7-5.5c2.2,0,4,0.4,5.2,1.2
				c1.2,0.7,1.8,2.2,1.8,4.6c0,1.2-0.4,3.7-1.2,7.4s-1.2,6.6-1.2,8.5c0,2.7,0.9,4,2.5,4c1.3,0,2.8-1,4.3-3.1s2.7-4.9,3.7-8.3
				s1.5-6.7,1.5-10.1c0-1.5-0.1-3-0.3-4.3C140.3,20,140.9,20,141.2,20z"/>
		</g>
	</g>
</g>
</svg>
